<svg width="327" height="79" viewBox="0 0 327 79" fill="none" xmlns="http://www.w3.org/2000/svg">
<path d="M112 4.5C125.255 4.5 136 15.2452 136 28.5V50.5C136 63.7548 125.255 74.5 112 74.5H24C10.7452 74.5 3.54365e-07 63.7548 0 50.5V28.5C0 15.2452 10.7452 4.5 24 4.5H112ZM31.2002 23.5V27.6201H24.1602C21.4403 27.6201 19.0934 28.0863 17.1201 29.0195C15.1735 29.9529 13.6663 31.2471 12.5996 32.9004C11.5598 34.5536 11.04 36.5138 11.04 38.7803C11.0401 41.0201 11.5597 42.9802 12.5996 44.6602C13.6663 46.3135 15.1735 47.6067 17.1201 48.54C19.0934 49.4733 21.4402 49.9404 24.1602 49.9404H31.2002V55.5H39.4805V49.9404H46.5195C49.2393 49.9404 51.5729 49.4732 53.5195 48.54C55.4928 47.6067 57 46.3134 58.04 44.6602C59.1067 42.9802 59.6396 41.0202 59.6396 38.7803C59.6396 36.5137 59.1066 34.5537 58.04 32.9004C57 31.2471 55.4929 29.9529 53.5195 29.0195C51.573 28.0864 49.2393 27.6201 46.5195 27.6201H39.4805V23.5H31.2002ZM62.9043 31.6602V54.5H73.1045L83.624 38.8047V54.5H91.6641V31.6602H81.1836L70.9844 46.873V31.6602H62.9043ZM96.1855 31.6602V54.5H104.346V45.8604H115.146V54.5H123.306V31.6602H115.146V39.7803H104.346V31.6602H96.1855ZM46.04 34.1797C47.1333 34.1797 48.0665 34.3669 48.8398 34.7402C49.6131 35.0869 50.213 35.6066 50.6396 36.2998C51.0663 36.9931 51.2803 37.8203 51.2803 38.7803C51.2802 39.7402 51.0663 40.5665 50.6396 41.2598C50.213 41.9531 49.6132 42.487 48.8398 42.8604C48.0666 43.2069 47.1332 43.3799 46.04 43.3799H39.4805V34.1797H46.04ZM31.2002 43.3799H24.5996C23.5331 43.3798 22.6131 43.207 21.8398 42.8604C21.0665 42.487 20.4667 41.9531 20.04 41.2598C19.6135 40.5665 19.4004 39.7401 19.4004 38.7803C19.4004 37.8203 19.6134 36.9931 20.04 36.2998C20.4667 35.6066 21.0667 35.0869 21.8398 34.7402C22.6131 34.3669 23.5331 34.1797 24.5996 34.1797H31.2002V43.3799Z" fill="#F5B72B"/>
<path d="M178.24 43.584V34.496L202.176 64H183.808L168.896 44.416H176.32L161.28 64H143.232L167.296 34.496V43.584L144.512 16H163.136L176.64 33.6H169.216L182.464 16H200.832L178.24 43.584ZM233.47 64L231.742 50.944L233.534 45.696L231.742 40.512L233.47 27.328H248.702L246.27 45.632L248.702 64H233.47ZM236.734 45.696C236.222 49.5787 235.091 52.992 233.342 55.936C231.635 58.8373 229.416 61.0987 226.686 62.72C223.998 64.2987 220.904 65.088 217.406 65.088C213.864 65.088 210.728 64.2773 207.998 62.656C205.267 61.0347 203.134 58.7733 201.598 55.872C200.104 52.928 199.358 49.536 199.358 45.696C199.358 41.7707 200.104 38.3573 201.598 35.456C203.134 32.512 205.267 30.2507 207.998 28.672C210.728 27.0507 213.864 26.24 217.406 26.24C220.904 26.24 223.998 27.0293 226.686 28.608C229.416 30.1867 231.656 32.448 233.406 35.392C235.155 38.2933 236.264 41.728 236.734 45.696ZM214.142 45.696C214.142 47.3173 214.462 48.7467 215.102 49.984C215.784 51.2213 216.723 52.2027 217.918 52.928C219.112 53.6533 220.478 54.016 222.014 54.016C223.592 54.016 225.107 53.6533 226.558 52.928C228.008 52.2027 229.288 51.2213 230.398 49.984C231.507 48.7467 232.318 47.3173 232.83 45.696C232.318 44.0747 231.507 42.6453 230.398 41.408C229.288 40.128 228.008 39.1253 226.558 38.4C225.107 37.6747 223.592 37.312 222.014 37.312C220.478 37.312 219.112 37.6747 217.918 38.4C216.723 39.1253 215.784 40.128 215.102 41.408C214.462 42.6453 214.142 44.0747 214.142 45.696ZM277.947 65.088C272.699 65.088 268.198 64.128 264.443 62.208C260.731 60.288 257.894 57.536 255.931 53.952C253.968 50.368 252.987 46.016 252.987 40.896C252.987 33.3013 255.099 27.328 259.323 22.976C263.59 18.5813 269.712 16.0427 277.691 15.36C280.976 15.104 283.686 14.8907 285.819 14.72C287.952 14.5067 289.702 14.3147 291.067 14.144C292.475 13.9307 293.648 13.7173 294.587 13.504C295.568 13.248 296.528 12.9707 297.467 12.672V24.512C296.4 24.896 295.142 25.216 293.691 25.472C292.283 25.728 290.512 25.9413 288.379 26.112C286.246 26.24 283.6 26.3893 280.443 26.56C275.067 26.7307 271.163 27.9893 268.731 30.336C266.299 32.64 265.083 36.0747 265.083 40.64V41.728L264.699 40.64C265.424 38.6347 266.64 36.8853 268.347 35.392C270.054 33.8987 272.102 32.768 274.491 32C276.923 31.1893 279.547 30.784 282.363 30.784C286.075 30.784 289.318 31.4667 292.091 32.832C294.864 34.1973 297.019 36.1387 298.555 38.656C300.091 41.1307 300.859 44.0107 300.859 47.296C300.859 50.88 299.899 54.016 297.979 56.704C296.102 59.3493 293.456 61.4187 290.043 62.912C286.63 64.3627 282.598 65.088 277.947 65.088ZM278.331 54.336C279.91 54.336 281.275 54.0587 282.427 53.504C283.622 52.9493 284.518 52.16 285.115 51.136C285.755 50.112 286.075 48.9173 286.075 47.552C286.075 46.144 285.755 44.9493 285.115 43.968C284.518 42.944 283.622 42.1547 282.427 41.6C281.275 41.0453 279.91 40.768 278.331 40.768C276.07 40.768 274.022 41.344 272.187 42.496C270.352 43.648 268.966 45.184 268.027 47.104C268.582 49.2373 269.798 50.9867 271.675 52.352C273.595 53.6747 275.814 54.336 278.331 54.336Z" fill="#FAFAFA"/>
<circle cx="319" cy="56" r="8" fill="#F5B72B"/>
</svg>
