<svg width="40" height="40" viewBox="0 0 40 40" fill="none" xmlns="http://www.w3.org/2000/svg">
<rect width="40" height="40" fill="#0E0737"/>
<path d="M9 12.0938L12.3908 18.1545V21.8514L9.00397 27.9003L9 12.0938Z" fill="#5B57A2"/>
<path d="M22.019 15.9476L25.1963 14.0002L31.6988 13.9941L22.019 19.924V15.9476Z" fill="#D90751"/>
<path d="M22.0012 12.0589L22.0192 20.0832L18.6205 17.9949V6L22.0015 12.0589H22.0012Z" fill="#FAB718"/>
<path d="M31.6989 13.9965L25.1962 14.0026L22.0012 12.0589L18.6205 6L31.6987 13.9965H31.6989Z" fill="#ED6F26"/>
<path d="M22.0192 27.934V24.0408L18.6205 21.9922L18.6223 33.999L22.0192 27.934Z" fill="#63B22F"/>
<path d="M25.1885 26.0043L12.3905 18.1545L9 12.0938L31.6852 25.9963L25.1883 26.0043H25.1885Z" fill="#1487C9"/>
<path d="M18.6227 33.9977L22.0191 27.9327L25.1884 26.003L31.685 25.9951L18.6227 33.9977Z" fill="#017F36"/>
<path d="M9.00385 27.9012L18.6481 21.9933L15.4058 20.0039L12.3906 21.8524L9.00385 27.9012Z" fill="#984995"/>
</svg>
